<?xml version="1.0" encoding="utf-8"?>
<!-- Generator: Adobe Illustrator 25.3.1, SVG Export Plug-In . SVG Version: 6.00 Build 0)  -->
<svg version="1.1" id="Layer_1" xmlns="http://www.w3.org/2000/svg" xmlns:xlink="http://www.w3.org/1999/xlink" x="0px" y="0px"
	 viewBox="0 0 270.72 276.01" style="enable-background:new 0 0 270.72 276.01;" xml:space="preserve">
<style type="text/css">
	.st0{fill:#010101;}
</style>
<g>
	<g>
		<path d="M20.67,276.01h-2.63c-0.06,0-0.11-0.01-0.14-0.02c-0.04-0.01-0.07-0.04-0.11-0.07l-0.08-0.08
			c-0.02-0.02-0.04-0.06-0.08-0.11c-0.04-0.06-0.06-0.09-0.09-0.11l-1.47-2.12H5.12l-1.49,2.12c-0.01,0.01-0.04,0.05-0.07,0.11
			c-0.03,0.06-0.06,0.1-0.08,0.11l-0.08,0.08c-0.04,0.04-0.07,0.06-0.11,0.07c-0.04,0.01-0.08,0.02-0.13,0.02H0.51l8.35-11.89
			c0.19-0.26,0.34-0.39,0.47-0.39h2.54c0.13,0,0.28,0.13,0.46,0.39L20.67,276.01z M14.43,271.15l-3.84-5.45l-0.33,0.46l-3.49,5
			H14.43z"/>
		<path d="M23.59,270.55c-0.56-0.33-1.01-0.77-1.33-1.33c-0.33-0.56-0.49-1.18-0.49-1.84c0-1.01,0.36-1.86,1.08-2.58
			c0.72-0.71,1.58-1.07,2.57-1.07h12.1c0.11,0,0.16,0.05,0.16,0.16v2.03c0,0.11-0.05,0.16-0.16,0.16h-12.1
			c-0.36,0-0.67,0.13-0.93,0.39c-0.26,0.26-0.39,0.56-0.39,0.92c0,0.36,0.13,0.66,0.39,0.92c0.26,0.26,0.57,0.39,0.93,0.39h8.87
			c1.01,0,1.87,0.36,2.59,1.08c0.72,0.72,1.08,1.58,1.08,2.59s-0.36,1.86-1.08,2.58c-0.72,0.71-1.58,1.07-2.59,1.07h-12.1
			c-0.11,0-0.16-0.05-0.16-0.16v-2.03c0-0.1,0.05-0.16,0.16-0.16h12.12c0.36,0,0.67-0.13,0.92-0.39c0.25-0.26,0.38-0.56,0.38-0.92
			c0-0.36-0.13-0.66-0.38-0.92c-0.25-0.26-0.56-0.39-0.92-0.39h-8.89C24.76,271.04,24.15,270.88,23.59,270.55z"/>
		<path d="M55.44,263.89v2.03c0,0.11-0.06,0.16-0.18,0.16h-6.75v9.77c0,0.11-0.05,0.16-0.16,0.16h-2.02c-0.12,0-0.18-0.05-0.18-0.16
			v-9.77h-6.75c-0.11,0-0.16-0.05-0.16-0.16v-2.03c0-0.11,0.05-0.16,0.16-0.16h15.85C55.38,263.73,55.44,263.78,55.44,263.89z"/>
		<path d="M72.89,276.01h-2.65c-0.05,0-0.09-0.01-0.13-0.02c-0.04-0.01-0.08-0.04-0.11-0.07l-0.08-0.08
			c-0.02-0.02-0.04-0.06-0.08-0.11c-0.03-0.06-0.06-0.09-0.07-0.11c-0.3-0.43-0.63-0.9-0.98-1.4s-0.72-1.04-1.12-1.61
			c-0.4-0.57-0.72-1.03-0.96-1.39l-0.12-0.18h-7.01v4.81c0,0.11-0.05,0.16-0.16,0.16h-2.03c-0.1,0-0.16-0.05-0.16-0.16v-3.5v-3.5
			v-4.96c0-0.11,0.05-0.16,0.16-0.16h12.36c0.67,0,1.28,0.16,1.84,0.49c0.56,0.33,1.01,0.77,1.33,1.33
			c0.33,0.56,0.49,1.17,0.49,1.82c0,0.47-0.08,0.91-0.25,1.33c-0.17,0.42-0.4,0.79-0.69,1.11c-0.29,0.32-0.64,0.59-1.04,0.81
			c-0.4,0.22-0.83,0.35-1.27,0.39l-0.68,0.07L72.89,276.01z M59.57,268.69h10.19c0.36,0,0.67-0.13,0.93-0.39
			c0.26-0.26,0.39-0.56,0.39-0.92c0-0.36-0.13-0.66-0.39-0.92c-0.26-0.26-0.57-0.39-0.93-0.39H59.57V268.69z"/>
		<path d="M84.96,263.73c1.1,0,2.12,0.27,3.07,0.82c0.95,0.55,1.7,1.3,2.24,2.24c0.55,0.94,0.82,1.97,0.82,3.08
			c0,1.11-0.27,2.14-0.82,3.08c-0.55,0.94-1.3,1.69-2.24,2.24c-0.95,0.55-1.97,0.82-3.07,0.82h-3.89c-1.11,0-2.14-0.27-3.08-0.82
			c-0.94-0.55-1.69-1.3-2.24-2.24c-0.55-0.94-0.82-1.97-0.82-3.08c0-1.11,0.27-2.14,0.82-3.08c0.55-0.94,1.29-1.69,2.24-2.24
			c0.94-0.55,1.97-0.82,3.08-0.82H84.96z M87.64,272.54c0.74-0.74,1.11-1.63,1.11-2.67c0-1.04-0.37-1.93-1.11-2.67
			c-0.74-0.74-1.63-1.11-2.67-1.11h-3.89c-0.68,0-1.31,0.17-1.89,0.51c-0.58,0.34-1.05,0.8-1.39,1.38c-0.34,0.58-0.51,1.21-0.51,1.9
			c0,1.04,0.37,1.93,1.11,2.67c0.74,0.74,1.63,1.11,2.67,1.11h3.89C86,273.66,86.9,273.29,87.64,272.54z"/>
		<path d="M94.4,263.73c0.05,0,0.09,0.01,0.13,0.02c0.04,0.01,0.08,0.04,0.11,0.07l0.08,0.08c0.02,0.02,0.04,0.06,0.08,0.11
			c0.04,0.06,0.06,0.09,0.07,0.11l6.96,9.93l6.96-9.93c0.02-0.01,0.05-0.05,0.09-0.11c0.04-0.06,0.06-0.1,0.08-0.11l0.08-0.08
			c0.04-0.04,0.07-0.06,0.11-0.07c0.04-0.01,0.08-0.02,0.14-0.02h2.63l-8.35,11.89c-0.18,0.26-0.33,0.39-0.46,0.39h-2.54
			c-0.13,0-0.29-0.13-0.47-0.39l-8.35-11.89H94.4z"/>
		<path d="M126.64,263.73c0.05,0,0.09,0.01,0.13,0.02c0.04,0.01,0.08,0.04,0.11,0.07l0.08,0.08c0.02,0.02,0.04,0.06,0.08,0.11
			c0.04,0.06,0.06,0.09,0.07,0.11l6.96,9.93l6.96-9.93c0.02-0.01,0.05-0.05,0.09-0.11c0.04-0.06,0.06-0.1,0.08-0.11l0.08-0.08
			c0.04-0.04,0.07-0.06,0.11-0.07c0.04-0.01,0.08-0.02,0.14-0.02h2.63l-8.35,11.89c-0.18,0.26-0.33,0.39-0.46,0.39h-2.54
			c-0.13,0-0.29-0.13-0.47-0.39l-8.35-11.89H126.64z"/>
		<path d="M162.58,266.08h-13.28v2.61h9.93c0.11,0,0.16,0.05,0.16,0.16v2.03c0,0.1-0.05,0.16-0.16,0.16h-9.93v2.61h13.28
			c0.1,0,0.16,0.05,0.16,0.16v2.03c0,0.11-0.05,0.16-0.16,0.16h-15.47c-0.11,0-0.16-0.05-0.16-0.16v-11.96
			c0-0.11,0.05-0.16,0.16-0.16h15.47c0.1,0,0.16,0.05,0.16,0.16v2.03C162.74,266.03,162.69,266.08,162.58,266.08z"/>
		<path d="M178.37,275.97v-0.02l-11.14-9.1v9c0,0.11-0.05,0.16-0.16,0.16h-2.03c-0.11,0-0.16-0.05-0.16-0.16v-11.96
			c0-0.11,0.05-0.16,0.16-0.16h2.03c0.04,0,0.07,0.02,0.11,0.05h0.02l11.12,9.12v-9.01c0-0.11,0.05-0.16,0.16-0.16h2.03
			c0.1,0,0.16,0.05,0.16,0.16v11.96c0,0.11-0.05,0.16-0.16,0.16h-2.03c-0.04,0-0.06-0.01-0.09-0.04H178.37z"/>
		<path d="M198.61,263.89v2.03c0,0.11-0.06,0.16-0.18,0.16h-6.75v9.77c0,0.11-0.05,0.16-0.16,0.16h-2.02
			c-0.12,0-0.18-0.05-0.18-0.16v-9.77h-6.75c-0.11,0-0.16-0.05-0.16-0.16v-2.03c0-0.11,0.05-0.16,0.16-0.16h15.85
			C198.55,263.73,198.61,263.78,198.61,263.89z"/>
		<path d="M215.41,272.95c-0.55,0.94-1.3,1.69-2.24,2.24c-0.95,0.55-1.97,0.82-3.07,0.82h-3.89c-1.11,0-2.14-0.27-3.08-0.82
			c-0.94-0.55-1.69-1.3-2.24-2.24c-0.55-0.94-0.82-1.97-0.82-3.08v-5.98c0-0.11,0.05-0.16,0.16-0.16h2.03c0.1,0,0.16,0.05,0.16,0.16
			v5.98c0,1.04,0.37,1.93,1.11,2.67c0.74,0.74,1.63,1.11,2.67,1.11h3.89c1.04,0,1.93-0.37,2.67-1.11c0.74-0.74,1.11-1.63,1.11-2.67
			v-5.98c0-0.11,0.05-0.16,0.16-0.16h2.03c0.11,0,0.16,0.05,0.16,0.16v5.98C216.24,270.98,215.96,272.01,215.41,272.95z"/>
		<path d="M234.41,276.01h-2.65c-0.05,0-0.09-0.01-0.13-0.02c-0.04-0.01-0.08-0.04-0.11-0.07l-0.08-0.08
			c-0.02-0.02-0.04-0.06-0.08-0.11c-0.04-0.06-0.06-0.09-0.07-0.11c-0.3-0.43-0.63-0.9-0.98-1.4c-0.35-0.5-0.72-1.04-1.12-1.61
			c-0.4-0.57-0.72-1.03-0.96-1.39l-0.12-0.18h-7.01v4.81c0,0.11-0.05,0.16-0.16,0.16h-2.03c-0.1,0-0.16-0.05-0.16-0.16v-3.5v-3.5
			v-4.96c0-0.11,0.05-0.16,0.16-0.16h12.36c0.67,0,1.28,0.16,1.84,0.49c0.56,0.33,1.01,0.77,1.33,1.33
			c0.33,0.56,0.49,1.17,0.49,1.82c0,0.47-0.08,0.91-0.25,1.33c-0.17,0.42-0.4,0.79-0.69,1.11c-0.29,0.32-0.64,0.59-1.04,0.81
			c-0.4,0.22-0.83,0.35-1.27,0.39l-0.68,0.07L234.41,276.01z M221.08,268.69h10.19c0.36,0,0.67-0.13,0.93-0.39
			c0.26-0.26,0.39-0.56,0.39-0.92c0-0.36-0.13-0.66-0.39-0.92c-0.26-0.26-0.57-0.39-0.93-0.39h-10.19V268.69z"/>
		<path d="M252.67,266.08H239.4v2.61h9.93c0.11,0,0.16,0.05,0.16,0.16v2.03c0,0.1-0.05,0.16-0.16,0.16h-9.93v2.61h13.28
			c0.1,0,0.16,0.05,0.16,0.16v2.03c0,0.11-0.05,0.16-0.16,0.16H237.2c-0.11,0-0.16-0.05-0.16-0.16v-11.96
			c0-0.11,0.05-0.16,0.16-0.16h15.47c0.1,0,0.16,0.05,0.16,0.16v2.03C252.83,266.03,252.78,266.08,252.67,266.08z"/>
		<path d="M256.34,270.55c-0.56-0.33-1.01-0.77-1.33-1.33c-0.33-0.56-0.49-1.18-0.49-1.84c0-1.01,0.36-1.86,1.08-2.58
			c0.72-0.71,1.58-1.07,2.57-1.07h12.1c0.11,0,0.16,0.05,0.16,0.16v2.03c0,0.11-0.05,0.16-0.16,0.16h-12.1
			c-0.36,0-0.67,0.13-0.93,0.39c-0.26,0.26-0.39,0.56-0.39,0.92c0,0.36,0.13,0.66,0.39,0.92c0.26,0.26,0.57,0.39,0.93,0.39h8.87
			c1.01,0,1.87,0.36,2.59,1.08c0.72,0.72,1.08,1.58,1.08,2.59s-0.36,1.86-1.08,2.58c-0.72,0.71-1.58,1.07-2.59,1.07h-12.1
			c-0.11,0-0.16-0.05-0.16-0.16v-2.03c0-0.1,0.05-0.16,0.16-0.16h12.12c0.36,0,0.67-0.13,0.92-0.39c0.25-0.26,0.38-0.56,0.38-0.92
			c0-0.36-0.13-0.66-0.38-0.92c-0.25-0.26-0.56-0.39-0.92-0.39h-8.89C257.51,271.04,256.9,270.88,256.34,270.55z"/>
	</g>
	<g>
		<g>
			<g>
				<path class="st0" d="M135.35,89.64l-25.88-44.82L135.35,0l25.88,44.82L135.35,89.64z M123.86,44.82l11.49,19.91l11.49-19.91
					l-11.49-19.91L123.86,44.82z"/>
			</g>
		</g>
		<g>
			<path class="st0" d="M233.1,169.28l-7.62-13.2l-4.96,10.89l-0.05,0.15c-0.3,0.65-0.6,1.3-0.92,1.92c-0.32,0.67-0.65,1.35-1,2.02
				c-1.72,3.39-3.64,6.63-5.76,9.72c-0.42,0.62-0.85,1.22-1.27,1.84c-0.45,0.67-0.92,1.32-1.4,1.94c-0.9,1.17-1.82,2.32-2.74,3.46
				c0,0,0.02,0,0,0.02c-0.97,1.12-1.92,2.22-2.91,3.31c-0.47,0.55-0.97,1.1-1.49,1.62c-0.5,0.55-1.02,1.1-1.59,1.62
				c-0.3,0.32-0.62,0.65-0.95,0.95c-2.92,2.84-5.98,5.46-9.22,7.87c-0.82,0.6-1.67,1.22-2.52,1.79c-0.9,0.65-1.82,1.25-2.74,1.84
				c-0.1,0.07-0.2,0.12-0.3,0.2c-0.82,0.55-1.67,1.07-2.52,1.54c-0.95,0.6-1.92,1.15-2.87,1.64c-0.97,0.55-1.94,1.07-2.91,1.54
				c-0.97,0.52-1.97,1-2.99,1.44c-2.02,0.92-4.04,1.77-6.13,2.57c-0.97,0.4-1.97,0.75-2.96,1.07c-0.07,0-0.12,0.02-0.2,0.05
				c-1.02,0.37-2.07,0.7-3.11,1c-2.39,0.72-4.83,1.35-7.3,1.87c-0.82,0.15-1.64,0.32-2.47,0.47c-1.87,0.35-3.76,0.62-5.68,0.87
				l7.52-13.01l7.18-12.46l43.6-75.52l-25.86-44.82l-43.6,75.52l-43.6-75.52l-25.89,44.82l58.3,100.98
				c-1.92-0.25-3.81-0.52-5.68-0.87c-0.82-0.15-1.64-0.32-2.47-0.47c-2.47-0.52-4.88-1.15-7.3-1.87c-0.92-0.25-1.82-0.55-2.72-0.85
				c-0.3-0.12-0.6-0.22-0.9-0.32c-0.9-0.27-1.79-0.6-2.67-0.95c-2.07-0.8-4.11-1.64-6.13-2.57c-1-0.47-1.99-0.95-2.99-1.44
				c-0.82-0.4-1.64-0.85-2.47-1.3c-0.15-0.1-0.32-0.17-0.47-0.27c-0.97-0.5-1.92-1.05-2.84-1.62c-0.85-0.5-1.69-1.02-2.52-1.54
				c-1.02-0.65-2.04-1.35-3.04-2.04c-0.6-0.4-1.17-0.82-1.74-1.25c-0.25-0.17-0.5-0.35-0.75-0.55c-0.6-0.45-1.2-0.9-1.79-1.37
				c-0.6-0.45-1.17-0.92-1.74-1.42c-1.17-0.95-2.29-1.92-3.41-2.94c-0.55-0.47-1.1-1-1.64-1.52c-0.55-0.5-1.07-1.05-1.59-1.57
				c-0.55-0.52-1.07-1.05-1.57-1.59c-0.5-0.55-1.02-1.1-1.52-1.64c-3.01-3.34-5.81-6.88-8.32-10.59c-0.65-0.95-1.27-1.89-1.84-2.84
				c-1.77-2.87-3.41-5.83-4.91-8.89c-0.32-0.62-0.62-1.27-0.92-1.92l-5.01-11.04l-7.6,13.18L0,234.46h131.77h3.59h3.59h131.77
				L233.1,169.28z M178.96,100.44l11.49,19.91l-36.4,63.06l-11.51-19.91L178.96,100.44z M80.25,120.35l11.51-19.91l36.4,63.06
				l18.69,32.36l-11.49,19.91L80.25,120.35z M21.58,222l22.72-39.39c0.17,0.27,0.32,0.55,0.52,0.82c1.3,2.19,2.72,4.34,4.21,6.4
				c1.45,2.09,3.01,4.11,4.66,6.05c1.57,1.97,3.26,3.86,5.06,5.71c0.57,0.62,1.17,1.22,1.77,1.82c1.2,1.2,2.42,2.37,3.69,3.51
				c0.62,0.57,1.25,1.12,1.89,1.67c0.65,0.57,1.3,1.12,1.94,1.64c0.97,0.82,1.94,1.59,2.94,2.37c0.8,0.6,1.62,1.22,2.44,1.79
				c0.85,0.62,1.72,1.25,2.62,1.84c1.1,0.75,2.22,1.47,3.34,2.17c1.02,0.62,2.04,1.25,3.09,1.84c1.02,0.6,2.07,1.17,3.11,1.74H21.58
				z M188.26,220.26c1.05-0.6,2.07-1.22,3.06-1.84c1.12-0.7,2.22-1.42,3.29-2.12c1.74-1.2,3.44-2.42,5.11-3.69
				c4.43-3.39,8.6-7.13,12.43-11.19c0.52-0.55,1.05-1.12,1.57-1.69c1.2-1.3,2.34-2.62,3.44-3.99c0.5-0.6,1-1.22,1.47-1.84
				c1.62-1.99,3.11-4.06,4.51-6.18c0.85-1.25,1.67-2.49,2.44-3.79c0.3-0.42,0.55-0.87,0.82-1.32L249.15,222h-64.03
				C186.16,221.43,187.21,220.85,188.26,220.26z"/>
		</g>
	</g>
</g>
</svg>
